<svg id="Layer_1" data-name="Layer 1" xmlns="http://www.w3.org/2000/svg" viewBox="0 0 236.79 236.8"><defs><style>.cls-1,.cls-7{fill:#a5c267;}.cls-2{fill:#5caddb;}.cls-3{fill:#84c1d8;}.cls-4{fill:#d3dda3;}.cls-5{fill:#fdfefd;}.cls-6{fill:#565656;}.cls-7{stroke:#565656;stroke-width:4px;}.cls-7,.cls-8,.cls-9{stroke-miterlimit:10;}.cls-8,.cls-9{fill:#545657;stroke:#fff;}.cls-8{stroke-width:3px;}.cls-9{stroke-width:2px;}</style></defs><rect class="cls-1" x="119.4" y="119.41" width="117.39" height="117.39" rx="26.09"/><rect class="cls-2" x="118.41" y="1.27" width="117.39" height="117.39" rx="26.09"/><rect class="cls-3" x="0.99" y="118.14" width="117.39" height="117.39" rx="26.09"/><rect class="cls-4" width="117.39" height="117.39" rx="26.09"/><rect class="cls-5" x="93.67" y="29.49" width="49.95" height="178.42" rx="11.94"/><rect class="cls-5" x="-169.01" y="319.85" width="49.95" height="178.42" rx="11.94" transform="translate(-290.41 -25.38) rotate(-90)"/><path class="cls-6" d="M-134.29,469.44a16.88,16.88,0,0,0,1-8.21,5.82,5.82,0,0,0-1.74-3.34,6.25,6.25,0,0,0-1.58-1,8.28,8.28,0,0,0-1.87-.48,11,11,0,0,0-2-.12c-.64,0-1.49,0-2.23,0a18.13,18.13,0,0,1-4.56-.76,8.38,8.38,0,0,1-4.23-2.74,5.94,5.94,0,0,1-1.12-2.54,7.68,7.68,0,0,1,0-2.66l0,.21a5.7,5.7,0,0,1,.19-1.18,6.05,6.05,0,0,1,.35-1,6.87,6.87,0,0,1,1.16-1.87,8,8,0,0,1,3.59-2.32,13.15,13.15,0,0,1,3.92-.6c.64,0,1.26,0,1.9.07l.76.05h.72a7.58,7.58,0,0,0,5-1.88,7.13,7.13,0,0,0,1.85-4.8v.29s-.05-.34-.1-.52a4.91,4.91,0,0,0-.17-.63,7.48,7.48,0,0,0-.51-1.19,5.67,5.67,0,0,0-1.56-1.83,7.68,7.68,0,0,0-4.93-1.27h-.38a3.6,3.6,0,0,1-.51,0l-1,0c-.64,0-1.28-.09-1.91-.16a25.16,25.16,0,0,1-3.78-.72,16.69,16.69,0,0,1-7.31-3.85,11.35,11.35,0,0,1-2.64-3.77,12.59,12.59,0,0,1-1-4.44,13.45,13.45,0,0,1,.5-4.44,12.07,12.07,0,0,1,2.18-4.17,15.64,15.64,0,0,1,7.29-4.76,25.74,25.74,0,0,1,8-1.25l.43,0h.89c.34,0,.69,0,1-.08a9.76,9.76,0,0,0,2-.41,6.2,6.2,0,0,0,2.79-1.75,5.52,5.52,0,0,0,.82-1.3,8.11,8.11,0,0,0,.3-.79l.14-.43.08-.37,0-.1h0l0,.08c0,.09,0,0,0,.05v-.21l0-.44c0-.31,0-.63,0-.94a9.54,9.54,0,0,0-.33-1.78,5.67,5.67,0,0,0-1.64-2.63,7.25,7.25,0,0,0-3.15-1.59,14.23,14.23,0,0,0-2.1-.4c-.36-.06-.76-.07-1.13-.11l-.68,0-.74,0a35.41,35.41,0,0,1-6-.88,21.37,21.37,0,0,1-6-2.39,14.77,14.77,0,0,1-5-4.76,16.38,16.38,0,0,1-2.21-6.2,19,19,0,0,1,0-6.26,16.93,16.93,0,0,1,2.08-5.9,12.89,12.89,0,0,1,4.43-4.41,14.89,14.89,0,0,1,5.64-1.89,22.82,22.82,0,0,1,5.66,0,.41.41,0,0,1,.36.45.4.4,0,0,1-.35.35h0a26.82,26.82,0,0,0-5.21,1.15,13.57,13.57,0,0,0-4.38,2.4,10.83,10.83,0,0,0-3.6,8.34,15.59,15.59,0,0,0,.57,4.64,10.3,10.3,0,0,0,2,3.84c1.66,2.08,4.33,3.12,7.46,3.56a33.46,33.46,0,0,0,4.86.31h1.33c.53,0,1,0,1.6,0a19.38,19.38,0,0,1,3.31.43,15.32,15.32,0,0,1,6.64,3.11,13.5,13.5,0,0,1,4.24,6.44,15.25,15.25,0,0,1,.68,3.59,18,18,0,0,1,0,1.8c0,.3,0,.6-.06.92l-.05.5,0,.15,0,.13,0,.16-.06.24-.25.95-.29.88a11.48,11.48,0,0,1-.76,1.74,13.25,13.25,0,0,1-2.29,3.17,13.71,13.71,0,0,1-6.6,3.66,18,18,0,0,1-3.44.48c-.57,0-1.13,0-1.7,0l-.86-.06c-.31,0-.53-.05-1-.12l.43,0c-3.79-.28-8.06.72-10,2.88a6,6,0,0,0-1.48,4.22,5.78,5.78,0,0,0,1.6,4.19,10.9,10.9,0,0,0,4.7,2.67,20.72,20.72,0,0,0,6.07,1,12.64,12.64,0,0,1,8,2.75,10.68,10.68,0,0,1,2.69,3.53,11.78,11.78,0,0,1,.74,2c.09.35.16.7.22,1.06a8.48,8.48,0,0,1,.13,1.18v0a1.15,1.15,0,0,1,0,.26,13.22,13.22,0,0,1-1,4,9.77,9.77,0,0,1-2.54,3.53,10.1,10.1,0,0,1-3.75,2.05,12.8,12.8,0,0,1-4,.54c-.33,0-.67,0-1-.05s-.75-.09-1-.12c-.49-.07-1-.13-1.52-.15a9.65,9.65,0,0,0-2.88.25,4.71,4.71,0,0,0-2.22,1.21,4,4,0,0,0-.72,1,5.72,5.72,0,0,0-.24.57c-.06.18-.11.46-.13.51l0,.21a3.8,3.8,0,0,0,.42,3.06,5.81,5.81,0,0,0,2.84,2,15.67,15.67,0,0,0,3.92.9c.7.08,1.29.09,2.1.12a14,14,0,0,1,2.3.27,10.56,10.56,0,0,1,2.27.74,7.75,7.75,0,0,1,2,1.42,7,7,0,0,1,1.35,2,8.61,8.61,0,0,1,.6,2.29,14.15,14.15,0,0,1-.28,4.51,21.79,21.79,0,0,1-1.34,4.22.4.4,0,0,1-.53.2.39.39,0,0,1-.21-.49Z" transform="translate(262.68 -290.4)"/><path class="cls-7" d="M-141.65,469.59" transform="translate(262.68 -290.4)"/><path class="cls-8" d="M-138.79,344c1.8,2,2.18,4.48,2.14,7.16-.11,9.61-.11,19.23-.15,28.84-.13,4.27-.32,8.55-.38,12.83-.12,8.19-.88,8.82-8.69,6.93l-.33-12.28a17.09,17.09,0,0,0-.08-7.43l0-17.7,4.08-1.85c2.09-1,3.83-2.36,3.53-5s-2.25-4.06-4.68-4.64a19.26,19.26,0,0,0-3-.28c-.8-2.93-.13-5.29,2.47-6.91Z" transform="translate(262.68 -290.4)"/><path class="cls-9" d="M-138.17,446.73c0,1,0,1.93,0,2.9a48.81,48.81,0,0,0,0,10.94c-.09,3.47-.3,6.93-.22,10.39.06,2.76-1.06,4.37-3.72,5l-1.48-.5c-.43-1.29-.85-2.58-1.28-3.86l.09-2.84a1.69,1.69,0,0,0,0-2.15q-.18-3-.35-6l.12-2c0-2.26.13-4.52.12-6.79C-144.94,445.57-144.37,445.13-138.17,446.73Z" transform="translate(262.68 -290.4)"/><path class="cls-9" d="M-138.1,410.6q.15,6,.31,12c-.84,3.47-.48,7-.53,10.54-.1,7-1.45,8-7.18,5,0-.73,0-1.46,0-2.2,0-5.73.17-11.45.12-17.18C-145.43,410.22-145.49,410.22-138.1,410.6Z" transform="translate(262.68 -290.4)"/></svg>